HIERARCHY
ROOT RootJoint
{
    OFFSET   0.000000   0.000000   0.000000
    CHANNELS 6 Xposition Yposition Zposition Xrotation Yrotation Zrotation
    JOINT pelvis_lowerback
    {
        OFFSET   0.000000   0.093605   0.000000
        CHANNELS 3 Xrotation Yrotation Zrotation
        JOINT lowerback_torso
        {
            OFFSET   0.000000   0.100000   0.000000
            CHANNELS 3 Xrotation Yrotation Zrotation
            JOINT torso_head
            {
                OFFSET   0.000000   0.282350   0.000000
                CHANNELS 3 Xrotation Yrotation Zrotation
                End Site
                {
                    OFFSET   0.000000   0.192650   0.000000
                }
            }
            JOINT rTorso_Clavicle
            {
                OFFSET  -0.001000   0.157500   0.000000
                CHANNELS 3 Xrotation Yrotation Zrotation
                JOINT rShoulder
                {
                    OFFSET  -0.117647   0.000000   0.000000
                    CHANNELS 3 Xrotation Yrotation Zrotation
                    JOINT rElbow
                    {
                        OFFSET  -0.245000   0.000000   0.000000
                        CHANNELS 3 Xrotation Yrotation Zrotation
                        JOINT rWrist
                        {
                            OFFSET  -0.240000   0.000000   0.000000
                            CHANNELS 3 Xrotation Yrotation Zrotation
                            End Site
                            {
                                OFFSET  -0.116353  -0.002500   0.000000
                            }
                        }
                    }
                }
            }
            JOINT lTorso_Clavicle
            {
                OFFSET   0.001000   0.157500   0.000000
                CHANNELS 3 Xrotation Yrotation Zrotation
                JOINT lShoulder
                {
                    OFFSET   0.117647   0.000000   0.000000
                    CHANNELS 3 Xrotation Yrotation Zrotation
                    JOINT lElbow
                    {
                        OFFSET   0.245000   0.000000   0.000000
                        CHANNELS 3 Xrotation Yrotation Zrotation
                        JOINT lWrist
                        {
                            OFFSET   0.240000   0.000000   0.000000
                            CHANNELS 3 Xrotation Yrotation Zrotation
                            End Site
                            {
                                OFFSET   0.116353  -0.002500   0.000000
                            }
                        }
                    }
                }
            }
        }
    }
    JOINT rHip
    {
        OFFSET  -0.100000  -0.051395   0.000000
        CHANNELS 3 Xrotation Yrotation Zrotation
        JOINT rKnee
        {
            OFFSET   0.000000  -0.410000   0.000000
            CHANNELS 3 Xrotation Yrotation Zrotation
            JOINT rAnkle
            {
                OFFSET   0.000000  -0.390000   0.000000
                CHANNELS 3 Xrotation Yrotation Zrotation
                JOINT rToeJoint
                {
                    OFFSET   0.000000  -0.050000   0.130000
                    CHANNELS 3 Xrotation Yrotation Zrotation
                    End Site
                    {
                        OFFSET  -0.010000   0.002000   0.060000
                    }
                }
            }
        }
    }
    JOINT lHip
    {
        OFFSET   0.100000  -0.051395   0.000000
        CHANNELS 3 Xrotation Yrotation Zrotation
        JOINT lKnee
        {
            OFFSET   0.000000  -0.410000   0.000000
            CHANNELS 3 Xrotation Yrotation Zrotation
            JOINT lAnkle
            {
                OFFSET   0.000000  -0.390000   0.000000
                CHANNELS 3 Xrotation Yrotation Zrotation
                JOINT lToeJoint
                {
                    OFFSET   0.000000  -0.050000   0.130000
                    CHANNELS 3 Xrotation Yrotation Zrotation
                    End Site
                    {
                        OFFSET   0.010000   0.002000   0.060000
                    }
                }
            }
        }
    }
}
MOTION
Frames: 15
Frame Time:   0.008333
 -2.271644   0.866797   3.250756  -8.888795  -6.154643   5.844007  16.771889   0.891916   0.334505   8.788068  -0.142686   0.091180   2.564987  -5.418854  -0.675645   4.147492  -8.065540  -0.142029  12.741942  -3.727293  49.116021  -0.052566  81.772264   0.038009   0.486213   6.548338  -2.299032   6.525289  12.552001   0.006173  19.742010   2.439784 -57.370706   0.119266 -75.392812   0.093684  -0.241934  -5.748668   4.952933 -17.076174   0.928648  -3.688026  56.867499   0.001534  -0.001950 -13.306581  -7.159454  -2.292579 -27.894622  -0.029144  -0.063926 -14.289466   3.818518  12.678041  75.883986   0.021548   0.056216   1.536797  -4.427928  -9.507813  -1.322305   0.014320   0.028173
 -2.270966   0.868730   3.238901  -9.166766  -5.682156   5.503750  16.658736   0.388322   0.401057   8.868859  -0.635536   0.320454   2.697536  -5.234580  -0.540453   4.505378  -8.251485   0.188331  13.930881  -3.683061  49.887812  -0.032776  82.142436   0.024651   0.487706   5.920876  -2.121833   6.295385  12.137047  -0.376089  18.955989   1.739178 -57.145319   0.178868 -77.390372   0.160753  -0.217792  -5.637199   4.889865 -17.651146   1.050309  -3.361791  56.512290  -0.000142  -0.003065 -11.247059  -6.775937  -1.466115 -28.982477  -0.014432  -0.058076 -12.336324   3.746297  12.376734  76.163408   0.017757   0.044112   1.787464  -5.021781  -9.801324  -1.034550   0.013175   0.021196
 -2.270153   0.872061   3.226649  -9.330247  -5.228833   5.134761  16.502026  -0.134995   0.449537   8.932719  -1.141198   0.572024   2.829896  -5.056445  -0.405714   4.864459  -8.452991   0.479176  15.067360  -3.608673  50.640479  -0.017540  82.552769   0.014908   0.502735   5.616850  -1.790692   6.070961  11.728952  -0.651143  18.213223   1.062382 -56.919639   0.249424 -79.308296   0.239077  -0.173003  -5.771897   4.715509 -18.208411   1.155717  -3.028695  55.728970  -0.003110  -0.005537  -8.719033  -6.299448  -0.683819 -30.353552  -0.001020  -0.055519 -10.508170   3.669410  11.926383  76.123228   0.013966   0.035554   2.008012  -5.578947 -10.076264  -0.766470   0.012129   0.015157
 -2.268992   0.876359   3.214077  -9.409603  -4.956796   4.766977  16.337762  -0.617492   0.458835   8.982720  -1.619933   0.794830   2.950051  -4.888484  -0.284238   5.202980  -8.650328   0.717157  16.130074  -3.526501  51.333685  -0.008961  82.953865   0.010529   0.523451   5.452405  -1.427601   5.862388  11.351083  -0.845883  17.521437   0.436791 -56.688858   0.335413 -81.114549   0.332755  -0.117989  -6.015496   4.571833 -18.775755   1.132801  -2.710605  54.724156  -0.004478  -0.006465  -5.924790  -6.028249  -0.327319 -31.661003   0.003844  -0.049508  -8.786602   3.661745  11.333934  76.015250   0.010845   0.029242   2.205826  -6.101438 -10.335060  -0.530094   0.010950   0.010131
 -2.267610   0.881128   3.201243  -9.415242  -4.753927   4.415266  16.148882  -1.106703   0.422305   9.016081  -2.097816   1.000568   3.058718  -4.732703  -0.171319   5.529139  -8.859679   0.905862  17.130403  -3.450370  51.970463  -0.006323  83.339171   0.010937   0.545812   5.360790  -1.083306   5.672277  11.006209  -0.953298  16.880529  -0.133124 -56.442282   0.444533 -82.810528   0.448922  -0.056873  -6.309259   4.489649 -19.254232   1.188181  -2.401559  53.390024  -0.006431  -0.007903  -3.104025  -5.695581  -0.053087 -33.154045   0.007644  -0.046350  -7.224406   3.663200  10.650970  75.927353   0.008429   0.024122   2.386955  -6.591391 -10.577170  -0.319557   0.009807   0.006165
 -2.266073   0.886035   3.188175  -9.367794  -4.611604   4.074549  15.947074  -1.590698   0.346453   9.036657  -2.570212   1.185368   3.155755  -4.588110  -0.067747   5.844217  -9.080559   1.049597  18.072732  -3.384700  52.552681  -0.008270  83.705424   0.014956   0.568130   5.309900  -0.779362   5.498523  10.693504  -0.987639  16.286585  -0.650306 -56.182799   0.594474 -84.400406   0.604771   0.008223  -6.627090   4.474642 -19.669695   1.295141  -2.135389  51.821857  -0.008797  -0.009063  -0.308916  -5.349212   0.233933 -34.420122   0.009771  -0.042306  -5.802717   3.672060   9.928087  75.871396   0.006586   0.019790   2.553564  -7.050695 -10.803704  -0.131774   0.008721   0.003145
 -2.264487   0.890824   3.174921  -9.286040  -4.477569   3.747160  15.734930  -2.078401   0.232832   9.048858  -3.043082   1.352215   3.243216  -4.454362   0.027962   6.152280  -9.314673   1.159857  18.964217  -3.331179  53.088164  -0.013319  84.050817   0.021276   0.589656   5.280390  -0.516535   5.338376  10.408792  -0.961814  15.735141  -1.120349 -55.913603   0.823676 -85.889328   0.838360   0.075782  -6.955374   4.516246 -20.016805   1.462215  -1.888429  50.123418  -0.011585  -0.010793   2.436628  -4.917018   0.513618 -35.562626   0.011339  -0.039569  -4.510596   3.670635   9.204997  75.844752   0.005175   0.016072   2.707469  -7.480646 -11.015117   0.036006   0.007741   0.000949
 -2.262154   0.896677   3.160751  -8.933196  -4.668040   3.690959  15.499171  -2.446786  -0.039841   8.968808  -3.358112   1.303281   3.389213  -4.176428   0.092278   6.355529  -9.525864   1.249882  19.876918  -3.061359  53.846210  -0.011247  84.654262   0.022941   0.580456   4.958900  -0.556459   5.216813  10.019748  -0.768960  15.330209  -1.694205 -55.746201   1.283601 -87.224994   1.301748   0.136040  -7.151755   4.599800 -20.581842   1.687183  -2.024684  48.088098  -0.012985  -0.005574   5.242461  -4.288083   1.679886 -36.430440   0.017069  -0.029935  -3.263277   3.623991   7.773604  74.216747   0.005102   0.034395   2.250708  -7.860145 -10.906064   0.353947   0.005170  -0.004671
 -2.259657   0.902627   3.145924  -8.473939  -4.932753   3.617382  15.306131  -2.769027  -0.304353   8.891464  -3.618736   1.253255   3.523863  -3.909744   0.142216   6.525490  -9.693114   1.338271  20.707767  -2.749009  54.591616  -0.006508  85.273933   0.021116   0.568376   4.888714  -0.497265   5.120602   9.655985  -0.517506  14.967641  -2.232784 -55.577650   2.447694 -88.490047   2.468661   0.195145  -7.372605   4.596801 -21.108500   1.914570  -2.148653  45.718068  -0.014766   0.000271   8.098812  -3.524715   2.829056 -37.110127   0.020119  -0.022662  -2.283623   3.511026   6.266233  72.234159   0.004684   0.056127   1.795050  -8.210575 -10.808163   0.555041   0.003336  -0.007525
 -2.257103   0.908256   3.130665  -7.998941  -5.219845   3.519671  15.177234  -3.060557  -0.566945   8.851716  -3.846448   1.217200   3.653730  -3.661065   0.185337   6.676681  -9.837292   1.416505  21.471580  -2.430096  55.294946  -0.001716  85.873555   0.018044   0.557016   4.953038  -0.379552   5.040417   9.327526  -0.222250  14.638002  -2.723399 -55.397230  11.685324 -89.676205  11.708225   0.256130  -7.623195   4.597265 -21.581676   2.177178  -2.235488  43.203712  -0.017306   0.004450  10.866062  -2.659661   3.889788 -36.990051   0.014985  -0.018196  -1.518629   3.368902   4.783333  70.235912   0.002520   0.073989   1.361488  -8.537562 -10.720427   0.715117   0.002088  -0.009074
 -2.254513   0.913380   3.115141  -7.553153  -5.528062   3.404376  15.112509  -3.320012  -0.829163   8.858773  -4.045199   1.184247   3.782010  -3.429135   0.222056   6.816845  -9.968748   1.482083  22.178920  -2.118853  55.950011   0.001740  86.442261   0.015284   0.546409   5.071889  -0.240211   4.975561   9.034851   0.094416  14.340052  -3.167505 -55.210695 175.310328 -89.199233 175.334108   0.317006  -7.875595   4.623112 -22.025905   2.433960  -2.295015  40.678880  -0.019478   0.007663  13.492073  -1.767816   4.864034 -35.743528   0.000832  -0.014453  -0.897826   3.224332   3.348650  68.319107  -0.000857   0.086572   0.953393  -8.843762 -10.642030   0.850730   0.001258  -0.009804
 -2.251909   0.917867   3.099495  -7.157708  -5.839067   3.280312  15.097823  -3.555265  -1.092305   8.908898  -4.222502   1.147882   3.909423  -3.212894   0.253357   6.952502 -10.095814   1.534854  22.839418  -1.822651  56.557766   0.002864  86.976814   0.014084   0.536279   5.207397  -0.095949   4.926871   8.776194   0.416383  14.073761  -3.569944 -55.024991 177.998824 -88.160200 178.022456   0.375636  -8.111902   4.665516 -22.445802   2.677398  -2.340063  38.203790  -0.021203   0.009893  15.988125  -0.872303   5.754202 -33.544168  -0.017867  -0.009387  -0.374978   3.083241   1.971478  66.513941  -0.004835   0.094060   0.570870  -9.130713 -10.571879   0.968792   0.000727  -0.009983
 -2.249315   0.921617   3.083839  -6.821993  -6.131591   3.153641  15.118038  -3.773365  -1.355949   8.992825  -4.385308   1.105077   4.034977  -3.011382   0.280297   7.087674 -10.223485   1.575735  23.460182  -1.545146  57.121002   0.000990  87.476791   0.015334   0.526434   5.341488   0.044863   4.893550   8.547971   0.732642  13.837423  -3.936190 -54.845368 178.734716 -87.191110 178.757322   0.430788  -8.324467   4.712098 -22.842658   2.907324  -2.380613  35.810373  -0.022569   0.011003  18.358145   0.013358   6.563643 -30.616664  -0.036951  -0.001347   0.079793   2.946974   0.658373  64.827649  -0.008955   0.097147   0.212999  -9.399624 -10.509029   1.073099   0.000412  -0.009786
 -2.246542   0.924719   3.068050  -6.503964  -6.577115   2.890198  15.310759  -3.713727  -1.440689   8.953095  -4.558301   1.110798   3.998573  -2.751896   0.146821   7.196277 -10.164439   1.843802  23.219120  -1.226652  57.224295   0.002281  87.396518   0.010510   0.507309   5.195347   0.184803   4.890504   8.318668   0.801290  13.781467  -4.265512 -54.562688 179.012498 -86.991105 179.031219   0.536758  -9.142051   4.838400 -23.888568   2.726489  -2.413764  36.034643  -0.017761   0.007487  16.418429   0.234912   7.276546 -27.435553  -0.046264  -0.014970   0.656363   2.771009  -0.391238  62.113595  -0.011622   0.111620  -0.442643  -9.138552 -10.073765   1.796155  -0.005379  -0.017859
 -2.243757   0.927226   3.052195  -6.217652  -6.940501   2.511839  15.555245  -3.566435  -1.394114   8.911354  -4.612396   1.170116   3.957449  -2.512457   0.026586   7.145595  -9.966038   2.103741  22.845996  -0.878899  57.276529   0.000379  87.299845   0.009696   0.490448   4.889338   0.118156   4.929684   8.090273   0.795302  13.770901  -4.569256 -54.315013 179.218400 -86.879596 179.233575   0.606076  -9.579983   4.839494 -24.884837   2.508999  -2.461542  36.676055  -0.012762   0.002270  14.586626   0.414196   7.948721 -24.798014  -0.047153  -0.022333   1.107335   2.485659  -1.155917  59.233551  -0.014065   0.121683  -1.071062  -8.885261  -9.659668   2.429341  -0.009601  -0.022388
